<svg xmlns="http://www.w3.org/2000/svg" width="100%" height="100%" viewBox="0 0 55 55">
    <g fill="none" fill-rule="evenodd">
        <g>
            <g>
                <path fill="#FFF" d="M0 0H55V55H0z" transform="translate(-1647 -800) translate(1647 800)"/>
                <g>
                    <path fill="#FFF" d="M0 0H55V55.553H0z" transform="translate(-1647 -800) translate(1647 800)"/>
                    <g fill-rule="nonzero">
                        <path fill="#C4D1F9" d="M18.842 35.247L15.136 44.227 11.268 35.247 11.268 29.066 11.268 26.939 18.842 26.939z" transform="translate(-1647 -800) translate(1647 800) translate(12.437 8.153)"/>
                        <path fill="#97B2FF" d="M15.049 28.755c2.09 0 3.793-.572 3.793-1.269h-7.574c0 .71 1.692 1.269 3.781 1.269z" opacity=".54" transform="translate(-1647 -800) translate(1647 800) translate(12.437 8.153)"/>
                        <path fill="#C4D1F9" d="M14.86 28.388c-2.02-.119-5.953-2.038-6.664-2.954-.808-1.02-2.649-4.726-2.649-10.385 0-9.8 5.82-11.89 9.502-11.89 3.681 0 9.502 2.09 9.502 11.89 0 5.659-1.84 9.365-2.65 10.385-.733.945-4.9 2.96-6.852 2.96z" transform="translate(-1647 -800) translate(1647 800) translate(12.437 8.153)"/>
                        <path fill="#C4D1F9" d="M26.38 17.387c.161-1.567-.585-2.96-1.667-3.11-1.082-.148-2.09.996-2.251 2.563-.162 1.567.584 2.96 1.666 3.097 1.082.174 2.09-.983 2.251-2.55zM3.731 17.387c-.162-1.567.585-2.96 1.667-3.11 1.082-.148 2.09.996 2.25 2.563.163 1.567-.584 2.96-1.666 3.097-1.082.174-2.09-.983-2.25-2.55z" transform="translate(-1647 -800) translate(1647 800) translate(12.437 8.153)"/>
                        <path fill="#3D3F6D" d="M15.049.124S5.273.336 5.273 7.425v6.865s.71-.124 1.22.299c.546.46.323 2.972.323 2.972h.659l.323-7.014c0-1.94 2.313-3.321 7.251-3.321 4.95 0 7.263 1.38 7.263 3.32l.324 7.015h.659s-.236-2.512.323-2.972c.51-.423 1.22-.299 1.22-.299v-7.3C24.824-.1 15.048.124 15.048.124z" transform="translate(-1647 -800) translate(1647 800) translate(12.437 8.153)"/>
                        <path fill="#5271FF" d="M27.026 34.861c-1.766-2.052-4.44-2.5-6.865-3.121h-1.306c0 1.654-1.717 2.985-3.83 2.985-2.115 0-3.832-1.344-3.832-2.985H9.888c-2.438.622-5.1 1.07-6.866 3.121C1.915 36.142 0 46.826 0 46.826h30.049s-1.916-10.684-3.023-11.965z" transform="translate(-1647 -800) translate(1647 800) translate(12.437 8.153)"/>
                    </g>
                </g>
            </g>
        </g>
    </g>
</svg>
