<svg xmlns="http://www.w3.org/2000/svg" width="100%" height="100%" viewBox="0 0 55 55">
    <g fill="none" fill-rule="evenodd">
        <g>
            <g>
                <path fill="#FFF" d="M0 0H55V55H0z" transform="translate(-1722 -800) translate(1722 800)"/>
                <g>
                    <path fill="#FFF" d="M0 0H55V55.553H0z" transform="translate(-1722 -800) translate(1722 800)"/>
                    <g fill-rule="nonzero">
                        <path fill="#3D3F6D" d="M13.322 40.57H3.795s-4.39-4.253-2.202-10.547c2.202-6.293 4.105-8.793 4.254-15.521h7.475V40.57z" transform="translate(-1722 -800) translate(1722 800) translate(14.234 7.877)"/>
                        <path fill="#3D3F6D" d="M13.073 40.57h9.514s4.39-4.253 2.202-10.547c-2.202-6.293-4.105-8.793-4.254-15.521H13.06V40.57h.013z" transform="translate(-1722 -800) translate(1722 800) translate(14.234 7.877)"/>
                        <path fill="#3D3F6D" d="M24.963 11.641C24.963 5.211 19.752 0 13.322 0 6.879 0 1.668 5.211 1.668 11.641s5.211 11.641 11.641 11.641c6.443.013 11.654-5.198 11.654-11.64z" transform="translate(-1722 -800) translate(1722 800) translate(14.234 7.877)"/>
                        <path fill="#C9D7FF" d="M17.214 36.59L13.272 47.659 9.416 36.59 9.416 28.046 17.214 28.046z" transform="translate(-1722 -800) translate(1722 800) translate(14.234 7.877)"/>
                        <path fill="#97B2FF" d="M13.359 30.732c2.263 0 4.104-1.293 4.104-2.898H9.255c0 1.592 1.84 2.898 4.104 2.898z" opacity=".54" transform="translate(-1722 -800) translate(1722 800) translate(14.234 7.877)"/>
                        <g fill="#C9D7FF">
                            <path d="M11.691.012h-.037c3.78 0 9.763 2.152 9.763 12.226 0 5.82-2.264 8.57-3.097 9.614-.754.964-4.616 4.066-6.63 4.104h-.036c-2.013-.038-5.875-3.14-6.63-4.104-.833-1.045-3.096-3.793-3.096-9.614C1.928 2.164 7.91.012 11.69.012h-.037.037z" transform="translate(-1722 -800) translate(1722 800) translate(14.234 7.877) translate(1.63 4.353)"/>
                            <path d="M.037 14.639c-.161-1.617.597-3.035 1.717-3.197 1.119-.149 2.151 1.032 2.313 2.637.162 1.604-.597 3.035-1.716 3.196-1.107.162-2.152-1.02-2.314-2.636z" transform="translate(-1722 -800) translate(1722 800) translate(14.234 7.877) translate(1.63 4.353)"/>
                        </g>
                        <path fill="#C9D7FF" d="M11.766 14.639c.161-1.617-.597-3.035-1.717-3.197-1.12-.149-2.151 1.032-2.313 2.637-.162 1.604.597 3.035 1.716 3.196 1.107.162 2.152-1.02 2.314-2.636z" transform="translate(-1722 -800) translate(1722 800) translate(14.234 7.877) translate(13.197 4.353)"/>
                        <path fill="#3D3F6D" d="M13.185 1.915c-.187-.025-.373-.037-.572-.037 0 0-6.393.473-8.172 8.806-.858.634-2.412 3.134-.36 5.907.286-2.35 1.144-4.042 2.636-4.701 2.637-1.144 3.732-.087 6.791-2.425 1.791-1.368 2.425-4.13 2.04-5.672-.721-1.915-2.537-1.84-2.363-1.878z" transform="translate(-1722 -800) translate(1722 800) translate(14.234 7.877)"/>
                        <path fill="#3D3F6D" d="M15.137 4.229s-2.3 8.594 7.749 12.188c2.413-7.86-1.99-12.997-7.749-12.188z" transform="translate(-1722 -800) translate(1722 800) translate(14.234 7.877)"/>
                        <path fill="#234798" d="M3.237 20.848L4.12 20.848 4.12 21.731 3.237 21.731z" transform="translate(-1722 -800) translate(1722 800) translate(14.234 7.877) rotate(-45.008 3.678 21.29)"/>
                        <path fill="#234798" d="M22.638 20.848L23.521 20.848 23.521 21.731 22.638 21.731z" transform="translate(-1722 -800) translate(1722 800) translate(14.234 7.877) rotate(-45.008 23.08 21.29)"/>
                        <path fill="#5271FF" d="M25.09 35.776c-1.436-2.214-7.872-4.365-7.872-4.365s.012.908-.303 2.04c-.654 2.35-3.59 3.071-3.59 3.071s-2.947-.72-3.589-3.071c-.315-1.132-.302-2.04-.302-2.04s-6.45 2.151-7.885 4.365C.352 39.296.025 47.17.025 47.17h26.602c-.013 0-.34-7.873-1.537-11.393z" transform="translate(-1722 -800) translate(1722 800) translate(14.234 7.877)"/>
                    </g>
                </g>
                <path fill="#3D3F6D" d="M16.818 24.041l.036-.03c.419-.333.906-.18 1.46.457l-.12-1.748-1.376 1.321zM37.065 22.446l1.16 1.548c-.115-.056-.244-.087-.38-.087-.3 0-.566.152-.725.385l-.055-1.846z" transform="translate(-1722 -800) translate(1722 800)"/>
            </g>
        </g>
    </g>
</svg>
